<?xml version="1.0" encoding="UTF-8"?>
<svg version="1.1" xmlns="http://www.w3.org/2000/svg" width="16" height="16">
<path d="M0 0 C5.28 0 10.56 0 16 0 C16 5.28 16 10.56 16 16 C10.72 16 5.44 16 0 16 C0 10.72 0 5.44 0 0 Z " fill="#EFC98F" transform="translate(0,0)"/>
<path d="M0 0 C0.66 0 1.32 0 2 0 C2 1.32 2 2.64 2 4 C3.98 4 5.96 4 8 4 C8.33 3.01 8.66 2.02 9 1 C9.66 1.33 10.32 1.66 11 2 C9.125 5.875 9.125 5.875 8 7 C4.5625 7.25 4.5625 7.25 1 7 C-1 4 -1 4 -0.625 1.8125 C-0.41875 1.214375 -0.2125 0.61625 0 0 Z " fill="#8C4525" transform="translate(3,6)"/>
<path d="M0 0 C1.65 0 3.3 0 5 0 C5.33 1.32 5.66 2.64 6 4 C3 5 3 5 0 4 C0 2.68 0 1.36 0 0 Z " fill="#EF7543" transform="translate(5,6)"/>
</svg>
