<?xml version="1.0" standalone="no"?>
<!DOCTYPE svg PUBLIC "-//W3C//DTD SVG 20010904//EN"
 "http://www.w3.org/TR/2001/REC-SVG-20010904/DTD/svg10.dtd">
<svg version="1.0" xmlns="http://www.w3.org/2000/svg"
 width="64.000000pt" height="64.000000pt" viewBox="0 0 64.000000 64.000000"
 preserveAspectRatio="xMidYMid meet">

<g transform="translate(0.000000,64.000000) scale(0.100000,-0.100000)"
fill="#000000" stroke="none">
<path d="M190 491 c0 -16 6 -31 13 -34 8 -3 5 -12 -10 -29 -13 -13 -23 -29
-23 -35 0 -6 -10 -9 -22 -6 -40 6 -76 -35 -80 -92 -2 -18 52 -122 72 -140 26
-23 248 -38 295 -20 71 28 135 140 106 186 -15 24 -14 46 2 52 6 2 9 7 6 11
-3 3 -22 -15 -43 -40 l-36 -47 0 58 c0 39 -5 64 -16 76 -12 14 -13 21 -3 37 7
11 9 27 6 36 -5 14 -25 16 -137 16 l-130 0 0 -29z m183 -38 c-29 -2 -77 -2
-105 0 -29 2 -6 3 52 3 58 0 81 -1 53 -3z m77 -38 c6 -8 10 -20 8 -28 -3 -13
-10 -13 -56 -1 -46 12 -58 12 -89 -1 -22 -9 -50 -13 -72 -10 -30 5 -33 4 -18
-5 12 -8 33 -9 55 -5 64 12 130 11 144 -3 11 -11 9 -12 -7 -7 -19 6 -19 6 -3
-8 10 -8 21 -29 24 -47 6 -27 3 -36 -21 -56 -15 -13 -35 -26 -45 -29 -10 -3
-21 -12 -24 -20 -6 -16 4 -20 20 -7 5 4 1 0 -8 -10 -22 -20 -23 -32 -3 -24 8
3 15 2 15 -3 0 -8 -141 -4 -167 4 -7 3 -13 14 -13 25 l0 20 20 -20 c19 -19 60
-28 60 -12 0 4 -18 15 -40 25 l-39 18 -3 92 c-2 51 0 100 5 110 7 15 23 17
126 17 91 0 121 -3 131 -15z m-280 -189 c0 -25 -4 -19 -18 24 -11 32 -10 33 3
16 8 -11 15 -29 15 -40z m0 -56 c7 -14 7 -20 0 -20 -13 0 -50 37 -50 50 0 16
38 -7 50 -30z"/>
<path d="M320 361 c0 -5 14 -14 31 -20 39 -13 39 -13 39 -2 0 5 -14 14 -31 20
-39 13 -39 13 -39 2z"/>
<path d="M252 308 c2 -13 8 -23 13 -23 6 0 11 10 13 23 2 15 -2 22 -13 22 -11
0 -15 -7 -13 -22z"/>
<path d="M345 311 c-3 -5 8 -9 24 -9 17 1 28 5 25 10 -7 11 -41 10 -49 -1z"/>
<path d="M280 256 c0 -23 38 -30 66 -11 30 20 25 32 -5 13 -17 -10 -25 -10
-41 0 -17 10 -20 10 -20 -2z"/>
<path d="M201 235 c3 -13 18 -23 45 -31 23 -7 51 -17 63 -23 13 -8 21 -8 21
-2 0 13 -53 41 -76 41 -10 0 -26 8 -37 18 -18 16 -19 16 -16 -3z"/>
</g>
</svg>
